<?xml version="1.0" encoding="UTF-8"?>
<svg id="Ebene_2" data-name="Ebene 2" xmlns="http://www.w3.org/2000/svg" viewBox="0 0 980.82 251.68">
  <defs>
    <style>
      .cls-1 {
        fill: #915329;
      }

      .cls-1, .cls-2 {
        stroke-width: 0px;
      }

      .cls-2 {
        fill: #824629;
      }
    </style>
  </defs>
  <g id="Wood">
    <g>
      <path class="cls-1" d="M2.17,11.67c-5.26,53.63.97,100.06-1.05,157.79C.54,185.81,0,225.13,4.5,244.29c17.55,8.63,32.87,4.68,46,6.13,19.28,2.14,114.72,1.04,134.11.44,174.63-5.47,422.8-1.21,682.6-3.68,28.96-.28,53.65.27,73.91-1.56,9.82-.88,33.34,2.04,38.86-3.37,1.64-15.88.55-65.8-.55-78.26-6-68.11,3.38-90.05-2.61-158.16L2.17,11.67Z"/>
      <path class="cls-2" d="M51.71,65.67c-2.46,26.35.65,59.26-.38,85.71-.73,18.62-3.37,37.16-3.3,55.8,0,1.71.16,3.69,1.56,4.69,1.24.89,2.92.4,4.44.32,42.98-2.25,57.27,1.52,102.41,2.52,3.82.08,33.7,3.02,40.66,2.12,1.64-1.9-.34-13.04-.09-15.54,2.09-21.67,3.05-30.91,1.19-59.1-.87-13.19,3.35-39.43,2.61-48.28-.69-8.22.14-16.49.43-24.74.03-.9.05-1.84-.39-2.63-1-1.81-3.56-1.49-5.63-1.45-51.65.98-93.14-5.29-143.51.6Z"/>
      <path class="cls-2" d="M441.67,214.43c2.46-26.35-.65-59.26.38-85.71.73-18.62,3.37-37.16,3.3-55.8,0-1.71-.16-3.69-1.56-4.69-1.24-.89-2.92-.4-4.44-.32-42.98,2.25-57.27-1.52-102.41-2.52-3.82-.08-33.7-3.02-40.66-2.12-1.64,1.9.34,13.04.09,15.54-2.09,21.67-3.05,30.91-1.19,59.1.87,13.19-3.35,39.43-2.61,48.28.69,8.22-.14,16.49-.43,24.74-.03.9-.05,1.84.39,2.63,1,1.81,3.56,1.49,5.63,1.45,51.65-.98,93.14,5.29,143.51-.6Z"/>
      <path class="cls-2" d="M687.24,67.12c-26.35-2.46-59.26.65-85.71-.38-18.62-.73-37.16-3.37-55.8-3.3-1.71,0-3.69.16-4.69,1.56-.89,1.24-.4,2.92-.32,4.44,2.25,42.98-1.52,57.27-2.52,102.41-.08,3.82-3.02,33.7-2.12,40.66,1.9,1.64,13.04-.34,15.54-.09,21.67,2.09,30.91,3.05,59.1,1.19,13.19-.87,39.43,3.35,48.28,2.61,8.22-.69,16.49.14,24.74.43.9.03,1.84.05,2.63-.39,1.81-1,1.49-3.56,1.45-5.63-.98-51.65,5.29-93.14-.6-143.51Z"/>
      <path class="cls-2" d="M787.22,216.18c26.43,1.29,59.17-3.27,85.64-3.4,18.64-.09,37.27,1.73,55.89.84,1.71-.08,3.68-.33,4.61-1.76.84-1.28.27-2.93.12-4.45-4.15-42.84-1.01-57.28-2-102.42-.08-3.82,1.53-33.8.32-40.71-1.97-1.56-13.02.91-15.52.78-21.74-1.13-31.02-1.68-59.1,1.42-13.14,1.45-39.54-1.61-48.35-.47-8.19,1.06-16.48.59-24.73.66-.9,0-1.84.03-2.61.5-1.76,1.08-1.33,3.62-1.2,5.68,3.26,51.56-1.17,93.28,6.93,143.34Z"/>
      <g>
        <path class="cls-2" d="M24.32,10.62c6.62,4.49,13.17,9.09,19.63,13.8,3.23,2.36,6.44,4.74,9.63,7.16,1.53,1.16,3.06,2.32,4.58,3.5.43.33.51.39.23.18l.38.29c.38.29.76.59,1.14.88.88.69,1.77,1.38,2.65,2.07,1.85,1.45,4.59,1.94,6.36,0,1.49-1.62,1.98-4.81,0-6.36C55.91,21.92,42.56,12.13,28.87,2.85c-1.95-1.32-5.07-.44-6.16,1.61-1.2,2.28-.47,4.74,1.61,6.16h0Z"/>
        <path class="cls-2" d="M36.26,40.53c1.75-2.79,3.61-5.5,5.6-8.12.02-.02.85-1.1.34-.45.26-.34.53-.68.8-1.01.49-.61.99-1.22,1.49-1.83,1.05-1.26,2.13-2.5,3.24-3.72,4.43-4.87,9.28-9.34,14.49-13.37,1.87-1.45,1.64-4.86,0-6.36-1.98-1.82-4.37-1.55-6.36,0-10.83,8.39-20.07,18.73-27.36,30.32-1.25,2-.49,5.05,1.61,6.16,2.22,1.17,4.82.52,6.16-1.61h0Z"/>
      </g>
      <g>
        <path class="cls-2" d="M243.07,9.76c.59.35,1.17.73,1.73,1.13.28.2.42.35.07.05.26.22.53.44.79.67.99.87,1.91,1.8,2.79,2.77,1.94,2.12,3.71,4.4,5.52,6.63,4,4.93,7.99,9.86,11.99,14.79,1.49,1.84,4.84,1.66,6.36,0,1.79-1.95,1.59-4.4,0-6.36-4.1-5.06-8.2-10.12-12.3-15.17-3.69-4.55-7.29-9.22-12.4-12.27-2.02-1.21-5.03-.52-6.16,1.61s-.55,4.87,1.61,6.16h0Z"/>
        <path class="cls-2" d="M245.05,38.64c.57-.66,1.18-1.28,1.84-1.86.33-.29.67-.57,1.01-.84-.6.48.54-.39.66-.48,1.57-1.14,3.15-2.27,4.73-3.4,3.3-2.37,6.61-4.74,9.91-7.11,6.61-4.74,13.22-9.48,19.82-14.23,1.91-1.37,3.02-3.98,1.61-6.16-1.22-1.89-4.11-3.08-6.16-1.61-6.74,4.84-13.48,9.68-20.23,14.52-3.37,2.42-6.74,4.84-10.11,7.26s-6.83,4.51-9.45,7.55c-1.54,1.78-1.88,4.64,0,6.36,1.69,1.55,4.72,1.9,6.36,0h0Z"/>
      </g>
      <g>
        <path class="cls-2" d="M469.23,7.65c10.46,9.67,21.14,19.1,32.03,28.29,1.8,1.52,4.63,1.89,6.36,0,1.53-1.67,1.92-4.74,0-6.36-10.89-9.19-21.57-18.62-32.03-28.29-1.73-1.6-4.68-1.84-6.36,0-1.6,1.74-1.85,4.66,0,6.36h0Z"/>
        <path class="cls-2" d="M476.35,41.39c10.53-11.24,21.85-21.72,33.86-31.36,1.84-1.48,1.66-4.84,0-6.36-1.96-1.8-4.4-1.58-6.36,0-12.01,9.64-23.33,20.12-33.86,31.36-1.61,1.72-1.83,4.68,0,6.36s4.65,1.84,6.36,0h0Z"/>
      </g>
      <g>
        <path class="cls-2" d="M725.45,10.69c10.41,8.13,20.65,16.48,30.71,25.04,1.79,1.52,4.63,1.89,6.36,0,1.54-1.68,1.91-4.74,0-6.36-10.06-8.56-20.3-16.91-30.71-25.04-1.85-1.45-4.58-1.94-6.36,0-1.48,1.62-1.98,4.82,0,6.36h0Z"/>
        <path class="cls-2" d="M727.13,41.9c.47-.74.97-1.46,1.48-2.17.58-.81-.22.23.37-.48.28-.34.55-.68.84-1.01,1.14-1.34,2.36-2.61,3.61-3.85,2.67-2.64,5.49-5.12,8.28-7.64,5.94-5.38,11.88-10.74,17.84-16.1,1.76-1.58,1.73-4.78,0-6.36-1.87-1.72-4.49-1.68-6.36,0-6.08,5.47-12.15,10.94-18.2,16.43-5.65,5.12-11.47,10.15-15.61,16.64-1.27,1.99-.48,5.05,1.61,6.16,2.23,1.18,4.8.51,6.16-1.61h0Z"/>
      </g>
      <g>
        <path class="cls-2" d="M920.08,13.99c6.45,2.9,12.72,6.21,18.74,9.92,2.98,1.84,5.9,3.77,8.76,5.79,1.46,1.03,2.9,2.09,4.32,3.17.11.09,1.1.85.51.38.29.23.59.46.88.69.76.6,1.51,1.21,2.27,1.82,1.82,1.48,4.61,1.92,6.36,0,1.51-1.65,1.95-4.78,0-6.36-11.41-9.29-23.88-17.14-37.3-23.18-2.14-.96-4.94-.69-6.16,1.61-1.04,1.97-.68,5.13,1.61,6.16h0Z"/>
        <path class="cls-2" d="M930.77,40.54c1.43-2.37,2.93-4.7,4.5-6.99.81-1.17,1.63-2.33,2.47-3.48.4-.54.8-1.08,1.21-1.62.23-.3.45-.6.68-.89-.37.47.13-.16.26-.33,3.47-4.42,7.22-8.61,11.19-12.58,1.67-1.67,1.79-4.72,0-6.36s-4.58-1.78-6.36,0c-8.32,8.31-15.64,17.66-21.72,27.72-1.22,2.02-.51,5.03,1.61,6.16s4.86.54,6.16-1.61h0Z"/>
      </g>
    </g>
  </g>
</svg>