<?xml version="1.0" encoding="UTF-8"?>
<svg id="Ebene_2" data-name="Ebene 2" xmlns="http://www.w3.org/2000/svg" viewBox="0 0 57.1 60.21">
  <defs>
    <style>
      .cls-1 {
        fill: #618085;
      }

      .cls-1, .cls-2, .cls-3, .cls-4 {
        stroke-width: 0px;
      }

      .cls-2 {
        fill: #5a797e;
      }

      .cls-3 {
        fill: #a8bbbe;
      }

      .cls-4 {
        fill: #bfdbda;
      }
    </style>
  </defs>
  <g id="Wood">
    <g>
      <path class="cls-3" d="M2.03,7.03c-1.23,2.36-1.55,5.87-.83,8.87,3.12,12.97,6.98,25.57,12.93,34.38,6.72,9.94,16.73,13.76,23.98,5.19,2.5-2.96,4.5-7.13,6.41-11.33,4.36-9.59,8.44-19.61,12.21-30.02.58-1.6.46-3.77-.28-5.12-2.53-4.57-6.84-5.26-10.57-5.34-10.18-.23-20.35-.46-30.53-.68-3.86-.09-7.82-.14-11.48,1.97-.69.4-1.32,1.12-1.83,2.09h0Z"/>
      <path class="cls-1" d="M26.38,22.19c-.69,4.46-1.1,8.94-1.5,13.42-.35,3.88-.61,8.07,1.74,11.33.37.51.82,1.01,1.46,1.22,1.23.41,2.58-.39,3.41-1.3,2.83-3.09,2.69-7.46,2.41-11.41-.34-4.76-.68-9.54-1.76-14.21-.24-1.03-.63-2.19-1.71-2.63-1.2-.49-3.74,1.27-3.75,2.45l-.31,1.12Z"/>
      <path class="cls-2" d="M26.9,60.03c-3.7-4.28-9.12-9.13-12.03-15.44-2.92-6.31-4.87-13.35-6.24-20.55-1.09-5.76-2.16-8.1-1.31-13.94.07-.49.36-.88.06-1.16-.14-.13-1.27-.59-2.32-.98-1.52-.57-2.22-.98-2.71-1.49C1,8.61-.27,12.75.05,16.5c.54,6.32.82,10.12,3.63,15.26,2.19,4.02,4.32,7.91,6.56,11.89,1.27,2.26,3.29,5.76,4.78,7.77,1.27,1.72,3.09,3.71,4.5,5.22,1.89,2.03,4.53,3.1,7.39,3.39Z"/>
      <path class="cls-4" d="M2.59,7.3c3.35,3.42,7.71,2.48,11.92,2.27,13.82-.71,28.46-.81,42.27.2-.08-1.13-.71-2.43-1.35-3.17-1.35-1.55-3.54-3.78-5.24-4.44-2.08-.8-7.13-2.01-9.29-2.06-8.05-.2-13.23-.04-21.39.05-4.41.05-8.79.82-13.05,2.37-1.38.51-3.61,1.85-4.34,4.32l.48.45Z"/>
    </g>
  </g>
</svg>