<?xml version="1.0" encoding="UTF-8"?>
<svg id="Ebene_2" data-name="Ebene 2" xmlns="http://www.w3.org/2000/svg" viewBox="0 0 644.15 431.45" preserveAspectRatio="none">
  <defs>
    <style>
      .cls-1 {
        opacity: .8;
      }

      .cls-2 {
        fill: #060f23;
        stroke-width: 0px;
      }
    </style>
  </defs>
  <g id="Wood">
    <g class="cls-1">
      <path class="cls-2" d="M0,40.67c.55,106.77,14.55,150.28,9.7,256.95-1.21,26.54-7.56,98.17,1.88,112.11,9.13,13.49,22.05,13.82,38.19,16s48-.27,64.2-2.01c45.87-4.9,108.09,4.02,148.9,5.69,111.76,4.57,177.32.03,300.58-.02,43.93-.02,65.94-7,74.5-25.1,3.33-7.03,3.59-15.08,3.57-22.86-.05-22.53,2.53-49.22,2.63-72.16.22-51.78-8.83-101.16-8.26-152.01.55-49.02-1.99-76.67-2.37-124.67-.03-4.13-.12-8.38-1.73-12.19-4.86-11.51-20.17-14.97-32.59-13.56-43.1,4.9-85.41-1.24-124.82-.85-65.69.64-127.62,4.4-203.05-2.49C194.97-3.48,107.99.73,31.83,9.56,17.19,11.26,0,19.43,0,40.67Z"/>
    </g>
  </g>
</svg>