<?xml version="1.0" encoding="UTF-8"?>
<svg id="Ebene_2" data-name="Ebene 2" xmlns="http://www.w3.org/2000/svg" viewBox="0 0 580.55 81.94" preserveAspectRatio="none">
  <defs>
    <style>
      .cls-1 {
        opacity: .8;
      }

      .cls-2 {
        fill: #060f23;
        stroke-width: 0px;
      }
    </style>
  </defs>
  <g id="Wood">
    <g class="cls-1">
      <path class="cls-2" d="M2.99,9.44C.62,25.8,2.74,48.76.37,65.12c-.48,3.3-.84,7.04,1.28,9.62,1.93,2.34,5.25,2.88,8.27,3.21,13.88,1.55,49.93,3.55,63.9,3.77,93.73,1.5,155-5.15,245.3-3.77,80.32,1.22,146.5,3.02,229.19-.96,3.84-.18,23.07-1.14,25.93-3.7,3.05-2.73,6.37-11.91,6.31-16-.27-18.95-2.04-28.05-.96-45.33.13-2.14.24-4.37-.6-6.35-2.21-5.17-9.18-5.77-14.8-5.57C463.7,3.63,354.92.13,254.38,0,170.95-.1,95.76,3.75,12.37,1.08c0,0-4.79-.54-6.05,1.02-2.57,3.2-3.33,7.34-3.33,7.34Z"/>
    </g>
  </g>
</svg>