<?xml version="1.0" encoding="UTF-8"?>
<svg id="Ebene_2" data-name="Ebene 2" xmlns="http://www.w3.org/2000/svg" viewBox="0 0 576.8 86.53" preserveAspectRatio="none">
  <defs>
    <style>
      .cls-1 {
        opacity: .8;
      }

      .cls-2 {
        fill: #060f23;
        stroke-width: 0px;
      }
    </style>
  </defs>
  <g id="Wood">
    <g class="cls-1">
      <path class="cls-2" d="M.16,15.39c-.98,16.5,2.87,29.15.82,47.59-.71,6.36.22,13.21,2.96,15.8,3.64,3.45,13.36,5.11,21.07,4.22,18.61-2.14,35.27-2.11,49.24-1.88,93.73,1.5,120.4,3.95,171.52,4.71,80.32,1.2,189.56,1.45,272.13-4.48,24.48-1.76,48.41-3.28,51.98-4.71,5.28-2.12,6.02-11.48,6.46-15.55,2.08-19.38-3.77-24.97-1.41-44.77.25-2.13.14-6.74-.71-8.72-2.21-5.17-6.55-5.71-12.17-6.09-35.9-2.39-142.97-1.89-243.47.9C225.28,5.02,98.22,1.52,14.82,3.85c-2.47.07-8.35.73-9.6,2.3C2.65,9.34.51,9.5.16,15.39Z"/>
    </g>
  </g>
</svg>