<?xml version="1.0" encoding="UTF-8"?>
<svg id="Ebene_2" data-name="Ebene 2" xmlns="http://www.w3.org/2000/svg" viewBox="0 0 1271.88 263.38" preserveAspectRatio="none">
  <defs>
    <style>
      .cls-1 {
        opacity: .8;
      }

      .cls-2 {
        fill: #060f23;
        stroke-width: 0px;
      }
    </style>
  </defs>
  <g id="Wood">
    <g class="cls-1">
      <path class="cls-2" d="M11.62,212.94C4.08,176.31-3.49,138.79,1.73,101.75,6.94,64.71,27.54,27.6,61.95,12.95c29.65-12.62,63.39-6.81,95.49-3.97,54.29,4.81,108.91.44,163.32-2.67,302.76-17.32,606.24,4.24,908.73,25.8,8.5.61,17.43,1.35,24.52,6.08,12.08,8.06,14.67,24.46,15.75,38.94,2.99,40.29,2.8,80.81-.55,121.07-1.34,16.13-3.77,33.52-15.07,45.11-8.9,9.13-21.82,13.02-34.34,15.45-38.97,7.54-79.1,4.16-118.71,1.64-321.83-20.48-645.6,17.26-967-9.15-41.82-3.44-93.05-8.39-122.48-38.31Z"/>
    </g>
  </g>
</svg>