<?xml version="1.0" encoding="UTF-8"?>
<svg id="Ebene_2" data-name="Ebene 2" xmlns="http://www.w3.org/2000/svg" viewBox="0 0 115.1 78">
  <defs>
    <style>
      .cls-1 {
        fill: #f1f1f1;
        stroke-width: 0px;
      }
    </style>
  </defs>
  <g id="Wood">
    <path class="cls-1" d="M109.75,73.76l-21.23-2.24c-.08-2.68-1.1-5.77-2.36-8.75,2.24-1.63,5.63-6.07,7.4-9.51,2.61.08,7.84-.85,10.12-1.2.51-.08,1.03-.27,1.34-.68.28-.38.33-.88.37-1.35.43-5.21.11-7.2.3-12.09.03-.91-.59-1.72-1.48-1.93-3.28-.75-5.05-1.35-9.23-2.04-.66-3.54-2.4-6.87-4.94-9.42-.4-.4-.84-.83-.9-1.39-.05-.45.15-.89.35-1.29,1.54-3.18,2.23-4.52,3.77-7.7.21-.43.42-.9.34-1.38-.09-.46-.44-.82-.78-1.14-4.19-3.92-7.5-6.32-12.89-8.27-.47-.17-.98-.34-1.47-.23-.54.11-.96.52-1.35.91-2.59,2.58-3.69,4.29-6.05,7.04-1.85-1.33-7.63-1.74-9.68-.75-2.19-4.04-4.05-5.7-6.47-9.27-.27-.4-.49-.88-.95-1.03-.4-.13-.83,0-1.22.14-5.68,2-5.94,2.23-11.12,5.3-.6.36-1.25.78-1.45,1.45-.18.58.02,1.2.23,1.77,1.32,3.73,2.72,7.24,4.35,10.85-2.78,1.7-5.25,7.26-5.48,9.85-3.87.65-7.94,1.09-10.62,1.31-.41.03-.85-.02-1.18.22-.32.24-.44.66-.54,1.05-1.22,4.78-.78,5.86-1.37,10.9-.14,1.22-.45,2.54.22,3.58.47.72,1.62,1.16,2.45,1.38,3.74,1.02,5.06,1.42,8.79,2.11.55,1.79,1.1,3.59,1.65,5.38.13.43.71,1.38.68,1.83-.03.57-.21.92-.41,1.45-.84,2.23-1.56,3.92-2.52,6.53-.1.28-.27.55-.3.83l-12.19-1.28c-.63,0-1.29-.02-1.85-.3-.74-.37-1.19-1.14-1.56-1.88-1.79-3.53-2.93-7.39-3.35-11.33-.05-.47-.09-.96.1-1.39.22-.51.84-1.78.84-2.34,0-1.28-.53-2.67-2.68-2.82-2.15-.15-3.69.08-3.46,2.8.68,3.66,1.81,2.35,2.22,4.53.78,4.13,1.56,8.27,2.34,12.4-3.18-2.32-6.14-4.95-8.81-7.85-.83-.9-1.66-1.89-1.83-3.1-.17-1.2-.25-2.46-.43-3.66-.21-1.43-1.75-1.93-3.19-1.84-1.44.09-3.09,1.39-1.71,4.12.75,1.48,1.72,1.42,2.05,1.88,3.25,4.52,5.43,6.88,8.68,11.4-1.42,1.1-2.73,2.44-3.36,4.12-.63,1.68-.46,3.76.8,5.04,1.34,1.37,3.46,1.52,5.38,1.59,7.52.26,15.05.51,22.57.77,7.52.26,15.04.51,22.57.77,7.63.26,15.26.52,22.89.3,11.25-.31,21.75-.11,33-.58.28-2.11-3.24-3.18-5.34-3.58ZM57.01,34c1.7-2.18,4.04-4.05,6.78-4.37,3.36-.39,6.49,1.57,9.31,3.45l1.74,1.53c2.33,2.3,2.71,4.08,3.17,7.32.16,1.13.19,2.3-.13,3.39-.91,3.11-4.24,4.74-7.23,5.99-2.25.94-4.75,1.89-7.06,1.1-.95-.32-1.78-.92-2.57-1.53-1.77-1.37-3.46-2.88-4.71-4.74-1.25-1.86-2.03-4.09-1.85-6.32.17-2.15,1.22-4.14,2.55-5.84Z"/>
  </g>
</svg>