<?xml version="1.0" encoding="UTF-8"?>
<svg id="Nameplates" xmlns="http://www.w3.org/2000/svg" viewBox="0 0 180 140">
  <defs>
    <style>
      .cls-1 {
        fill: #e8e1a5;
      }

      .cls-1, .cls-2 {
        stroke-width: 0px;
      }

      .cls-2 {
        fill: #5399ce;
      }

      .cls-3 {
        fill: #f1f1f1;
        stroke: #5399ce;
        stroke-miterlimit: 10;
      }
    </style>
  </defs>
  <path class="cls-2" d="M50.58,35.59c-8.55,1.12-20.64,6.87-24.37,14.65-4,8.34-6.09,17.59-6.05,26.85.02,5.14.68,10.31-.04,15.4-1.52,10.76-8.96,19.77-11.84,30.25,15.14-.73,27.29-12.78,41.9-16.83,8.77-2.44,15.62-4.95,24.66-3.87,14.72,1.75,33.54,4.43,46.19,3.74,13.35-.73,24.88-1.14,33.77-6.35,7.55-4.42,11.92-8.81,13.87-13.53,4.1-9.96,3.22-11.86,2.35-22.42-.5-6.04-2.39-9.81-6.37-14.38-4.12-4.73-13.33-8.08-19.42-9.59-9.25-2.29-20.14-1.67-29.6-.45-11.62,1.5-18.29-.03-29.44-.82-11.18-.79-19.21-3.55-35.59-2.65Z"/>
  <path class="cls-1" d="M8.54,121.83c-.49-3.32.05-9.66-.09-13.02-.15-3.79-.06-7.67,1.3-11.21,1.62-4.22,4.53-5.69,6.89-9.55,1.36-2.23,3.35-5.81,3.72-5.8.78.01.39,5.85.27,6.63-.62,4.05-.57,6.59-2.27,11.45-2.26,6.46-4.91,16.74-9.81,21.51Z"/>
  <path class="cls-1" d="M9.87,122.58c3.36,1.64,7.46,2.23,11.18,1.94,3.72-.29,7.35-1.31,10.88-2.55,1.52-.53,3.03-1.11,4.44-1.9,1.16-.65,2.24-1.44,3.29-2.27,5.74-4.57,8.49-10.7,15.36-13.27-7.1.46-12,2.62-18.21,6.1-1.83,1.03-3.6,2.17-5.4,3.25-2.8,1.67-5.71,3.19-8.79,4.24-4.3,1.47-8.68,2.41-12.74,4.46Z"/>
  <g>
    <path class="cls-3" d="M69.94,75.97c-3.71.87-7.4.17-11.06-2.1-3.66-2.27-5.21-6.47-4.66-12.61.18-1.92,1.03-3.57,2.54-4.94,1.51-1.37,3.26-2.29,5.24-2.77,1.98-.47,3.98-.4,5.98.22,2.01.62,3.59,1.94,4.74,3.95.95-.93,1.87-1.88,2.74-2.86s1.98-1.31,3.31-.98c1.71.36,2.59,1.71,2.65,4.05.01,1.24-.2,2.02-.62,2.35-.43.33-.92.76-1.49,1.28-.57.52-1.13,1.4-1.68,2.66-.55,1.26-.95,3.42-1.18,6.48q-.33,4.19-.26,8.08c.04,1.93.86,4,1.92,4.8,1.05.8,2.01,1.51,2.87,2.12.86.61,1.19,1.86.99,3.74-.17,1.47-.85,2.4-2.03,2.82-1.18.41-2.52.14-4.02-.83-1.5-.96-2.99-2.69-4.46-5.18-1.47-2.49-2.63-6.08-1.51-10.28ZM70.38,67.28c-.25-1.04-.78-2.19-1.59-3.45-.81-1.26-1.58-2.02-2.29-2.3-.69-.24-1.77-.23-3.23.03-1.47.26-2.28.9-2.45,1.91-.25,1.37-.02,2.43.68,3.18.71.74,1.6,1.24,2.68,1.5,1.08.25,2.2.29,3.38.12,1.17-.17,2.11-.5,2.83-.98Z"/>
    <path class="cls-3" d="M95.74,81.08l-.97,1.16s-.1.11-.15.19c-.06.07-.11.14-.15.19l-1.9,1.49c-1.89.88-4,.74-6.34-.43-2.34-1.17-3.86-3.13-4.58-5.89-.09-.27-.2-1.58-.33-3.95-.13-2.37-.07-4.77.19-7.19.26-2.42.82-4.36,1.7-5.79.88-1.44,2.29-1.35,4.24.25.22,2.6.11,5.25-.34,7.97-.45,2.71-.39,5.22.18,7.53,2.01.95,3.29,1.04,3.85.26.56-.78.86-1.97.91-3.57.05-1.6.1-3.38.14-5.34.04-1.95.54-3.62,1.5-5,2.27-.96,3.61-.32,4.05,1.92.43,2.24.85,4.47,1.26,6.69.33,1.9.56,3.01.71,3.33.15.32.58,1.17,1.29,2.54,1.27,2.53,1.12,4.37-.45,5.51-1.57,1.15-3.17.53-4.8-1.87Z"/>
    <path class="cls-3" d="M101.14,58.82c-.34-1.95-.1-3.4.7-4.37.81-.96,1.79-1.48,2.95-1.54,1.16-.06,2.29.3,3.39,1.1,1.1.8,1.77,1.95,2.02,3.47.3,2,.04,3.46-.77,4.36-.81.9-1.8,1.36-2.96,1.36-1.16,0-2.27-.38-3.35-1.16-1.08-.78-1.74-1.85-1.99-3.23ZM103.86,75.3c-.55-2.36-.68-4.57-.41-6.62.27-2.05,1.48-3.08,3.6-3.08,2.08,0,3.27,1.02,3.56,3.04.29,2.02.89,4,1.8,5.93,1.06,2.25,1.33,4.12.82,5.61-.51,1.49-1.35,2.38-2.51,2.67-1.16.29-2.43-.14-3.81-1.28-1.38-1.14-2.4-3.23-3.06-6.28Z"/>
    <path class="cls-3" d="M117.85,64.16c.9-1.11,1.99-2.16,3.28-3.14,1.29-.98,2.95-.99,4.97-.03,2.35,1.13,4.15,3.01,5.42,5.65,1.26,2.64,1.84,5.26,1.73,7.87-.11,2.61-.99,4.83-2.63,6.65-1.64,1.82-4.18,2.49-7.63,2.01,0,.88.02,2.04.06,3.48.03,1.44-.04,2.77-.23,3.98-.19,1.21-.55,2.11-1.09,2.71-.54.6-1.38.5-2.51-.3-.74-.52-1.2-1.34-1.37-2.44-.17-1.1-.23-2.3-.17-3.61.06-1.31.14-2.62.25-3.94.11-1.32.08-2.47-.1-3.45-.18-.91-.38-1.43-.6-1.58-.22-.14-.31-.78-.27-1.92.02-.52.08-.98.19-1.38.11-.4.12-.85.04-1.34-.09-.49-.35-1.09-.79-1.79s-1.19-1.63-2.26-2.77c-.75-.79-1.17-1.65-1.26-2.56-.09-.91.06-1.67.46-2.28.4-.6.99-.94,1.78-1.02.79-.08,1.7.32,2.73,1.2ZM126,68.4c-1.2-1.42-2.04-1.91-2.51-1.48-.47.43-1.14,1.11-2,2.03.1.88.38,2.21.82,3.97.44,1.76.86,2.99,1.26,3.68,1.07.34,1.95.32,2.63-.06.69-.38,1.34-.93,1.97-1.65.07-1.49-.13-2.76-.57-3.81-.45-1.05-.98-1.94-1.59-2.68Z"/>
  </g>
</svg>