<?xml version="1.0" encoding="UTF-8"?>
<svg id="Nameplates" xmlns="http://www.w3.org/2000/svg" viewBox="0 0 180 140">
  <defs>
    <style>
      .cls-1 {
        fill: #525866;
      }

      .cls-1, .cls-2, .cls-3, .cls-4 {
        stroke-width: 0px;
      }

      .cls-2 {
        fill: #6595a9;
      }

      .cls-3 {
        fill: #a6e9ef;
      }

      .cls-4 {
        fill: #f1f1f1;
      }
    </style>
  </defs>
  <path class="cls-2" d="M109.27,35.7c.92-3.34,1.84-6.67,2.77-10.01.67-2.41,1.38-4.9,3-6.8,2.48-2.89,6.52-3.78,10.27-4.49,2.65-.5,5.35-1,8.03-.73,5.58.56,10.37,4.42,13.63,8.99.85,1.19,1.65,2.52,1.7,3.98.06,1.73-.93,3.31-1.97,4.7-2.07,2.79-4.47,5.34-7.13,7.58-1.34,1.13-2.85,2.22-4.6,2.33-1.27.08-2.5-.38-3.7-.81-6.8-2.45-13.8-4.33-20.92-5.62"/>
  <path class="cls-1" d="M130.54,35.82c-23.42-2.24-29.52-2.08-53.05-2.18-10.91-.05-26.48.47-36.26,5.21-10.31,5.01-13.79,12.33-17.81,22.89-2.18,5.74-3.37,12.03-2.05,18.03,2.54,11.56,6.93,14.5,18.03,19.14,5.63,2.36,17.27,3.4,23.37,4,6.28.61,12.61-.12,18.9-.69q19.82-1.78,39.65-.21c5.69.45,16.01-.08,21.57-1.39,9.57-2.26,11.9-8.8,14.8-18.01,2.9-9.21,2.35-15.65-1.92-24.34-6.22-12.66-7.35-20.04-25.23-22.45Z"/>
  <path class="cls-3" d="M128.96,45.99c2.15-10.06,7.39-19.8,15.92-25.55,2.37-1.6,5.03-2.89,7.88-3.11,3.85-.31,7.67,1.39,10.57,3.94,2.9,2.55,5,5.88,6.81,9.3,1.36,2.58,2.61,5.37,2.54,8.29-.14,5.83-5.3,10.16-10.17,13.38-2.61,1.72-5.26,3.36-7.92,5-1.54.95-3.21,1.94-5.02,1.86-1.43-.07-2.74-.8-3.99-1.51-6.1-3.5-10.53-8.09-16.63-11.59"/>
  <g>
    <path class="cls-4" d="M72.27,81.58c1.15.04,2.17-.05,3.05-.25.88-.2,1.48.54,1.81,2.24.24,1.28.03,2.33-.65,3.15s-1.56,1.25-2.64,1.3c-1.27.07-2.27-.17-3.01-.74-.74-.57-1.45-1.06-2.15-1.47-.51-.29-1.4-.31-2.66-.06-1.26.25-2.66.4-4.18.44-1.53.04-3.08-.22-4.65-.77-1.57-.55-2.93-1.79-4.05-3.7-1.01-1.7-1.69-3.69-2.03-5.99-.34-2.3-.32-4.55.07-6.75.39-2.2,1.17-4.18,2.35-5.94s2.77-2.93,4.8-3.52c1.97-.59,4.1-.57,6.39.07,1.26.35,2.13.7,2.61,1.06.48.36,1.18.93,2.09,1.7.47.41,1.09.64,1.88.7.79.06,1.53.18,2.23.36.7.18,1.25.55,1.65,1.1.4.55.45,1.52.16,2.9-.2.92-.5,1.41-.89,1.47-.39.06-.81.15-1.27.28-.45.13-.89.53-1.33,1.19-.43.66-.78,2.04-1.04,4.14-.22,1.77-.24,3.14-.06,4.11.18.97.69,1.96,1.52,2.98ZM65.87,79.4c-.12-2.41-.13-4.23-.04-5.47.09-1.23.22-2.2.37-2.9.15-.7.3-1.3.45-1.79.15-.49.22-1.2.22-2.14-3.49-1.7-6.06-2.13-7.72-1.28-1.66.85-2.7,2.18-3.12,4-.42,1.82-.38,3.71.12,5.69.51,1.98,1.17,3.23,2.01,3.76.97.65,2.22.92,3.75.81,1.52-.12,2.84-.34,3.96-.68Z"/>
    <path class="cls-4" d="M87.25,55.15c-.04,3.22-.34,6.55-.92,9.97s-.93,6.5-1.06,9.23c-.13,2.73.22,4.89,1.05,6.49.83,1.6,1.9,2.27,4.7,1.83.75-.12,1.34-.23,2.73-.76,1.39-.53,1.77-.65,2.63-.93.62-.2,1.52-.58,2.75-.78,1.22-.21,2.18.45,2.62.96.59.66,1.25,1.31,1.3,2.6.05,1.3-1.21,1.99-3.12,2.73-2.8,1.06-4.65,1.62-7.72,2.32-1.46.34-2.83.52-5.23-.11-2.4-.63-4.25-2.32-5.57-5.06-1.31-2.74-1.65-7.19-1.01-13.34.25-2.54.59-5.15,1-7.83.41-2.68.63-5.36.65-8.02.01-1.57.03-3.05.04-4.42.01-1.38.84-2.06,2.46-2.05,1.33.01,2.12.83,2.36,2.46.24,1.63.36,3.19.34,4.7Z"/>
    <path class="cls-4" d="M102.73,64.46c.7.03,1.65-.02,2.84-.14,1.19-.12,2.38-.19,3.56-.21s2.25.09,3.19.31c.94.22,1.52.69,1.74,1.4.4,1.41.28,2.44-.35,3.09-.63.65-1.48,1.09-2.53,1.31-1.06.22-2.17.3-3.33.24-1.16-.06-2.06-.1-2.7-.12.57,2.25,2,4.77,4.3,7.57,2.3,2.8,4.23,5.13,5.78,6.99.77.94,1.42,1.72,1.96,2.35.53.63.57,1.86.13,3.71-1.53,1.21-2.59,1.52-3.17.94-.58-.58-1.39-1.48-2.43-2.7-.78-.89-1.55-1.78-2.32-2.67-.77-.89-1.53-1.8-2.29-2.72-1.49-1.82-2.89-3.8-4.18-5.93-1.29-2.14-2.36-4.43-3.19-6.87-.82-.14-1.78-.18-2.88-.12-1.1.07-2.09,0-2.99-.2-.89-.2-1.56-.67-1.99-1.4-.43-.73-.41-1.98.09-3.73,1.35-.85,2.23-1.17,2.64-.97.42.2,1.48.33,3.19.39-.05-1.07-.18-2.29-.39-3.65-.21-1.36-.28-2.78-.2-4.24.07-1.46.4-2.93.99-4.41.59-1.47,1.65-2.86,3.2-4.17,1.99-1.69,4.33-2.36,7.03-2.03,2.7.33,4.64,1.76,5.83,4.27.94,2.01,1.22,3.78.83,5.31-.39,1.54-1.06,2.72-2.03,3.55-.97.83-2.03,1.25-3.2,1.26-1.17,0-2.06-.51-2.67-1.57-.36-.59-.56-1.22-.59-1.88-.04-.66-.22-1.24-.55-1.72-.39-.54-.93-.85-1.62-.91-.69-.06-1.26.21-1.7.81-.78,1.04-1,2.52-.65,4.45.35,1.92.58,3.39.67,4.42Z"/>
    <path class="cls-4" d="M118.49,63.49c-.1-1.77.27-3.04,1.09-3.81.82-.77,1.75-1.13,2.79-1.06,1.04.07,2,.51,2.9,1.33.9.82,1.37,1.92,1.43,3.3.06,1.81-.32,3.08-1.14,3.8-.82.72-1.74,1.02-2.77.9-1.03-.11-1.98-.58-2.86-1.38-.88-.81-1.35-1.83-1.43-3.08ZM119.18,78.43c-.24-2.16-.13-4.14.33-5.93.46-1.8,1.64-2.58,3.53-2.36,1.85.22,2.8,1.25,2.84,3.08.04,1.83.37,3.65.98,5.47.7,2.11.75,3.8.14,5.08-.61,1.27-1.45,1.98-2.51,2.11-1.06.13-2.15-.38-3.25-1.54-1.1-1.16-1.79-3.13-2.06-5.9Z"/>
  </g>
</svg>