<?xml version="1.0" encoding="UTF-8"?>
<svg id="Nameplates" xmlns="http://www.w3.org/2000/svg" viewBox="0 0 180 140">
  <defs>
    <style>
      .cls-1 {
        fill: #f1f1f1;
        stroke: #f1f1f1;
        stroke-miterlimit: 10;
      }

      .cls-2 {
        fill: #4a6c40;
        stroke-width: 0px;
      }
    </style>
  </defs>
  <path class="cls-2" d="M26.75,51.1c-4.24,10.38-6.27,21.89-5.88,33.3.13,3.79.62,7.82,2.81,10.71,1.82,2.4,4.57,3.65,7.3,4.4,4.29,1.17,7.31,1.31,11.73,1.43,35.65.95,67.02,1.13,102.67.06,5.46-.16,10.01-.59,14.01-4.77,3.3-3.45,4.47-8.75,4.9-13.78.76-8.9-.33-17.99-3.16-26.34-.73-2.17-1.61-4.33-3.01-6.02-3.68-4.44-8.32-4.54-13.63-5.66-.86-.18-1.77-.43-2.34-1.16-.49-.63-.64-1.49-.78-2.31-.45-2.74-.9-5.48-1.35-8.22-.13-.82-.29-1.69-.83-2.26-.65-.7-1.65-.75-2.56-.75-11.29-.03-15.53.6-26.06,5.18-2.61,1.14-5.14,2.55-7.87,3.25-2.95.76-4.29.72-7.31.62-4.09-.13-8.25-1.02-12.34-1.15-1.85-.06-3.72-.13-5.48-.74-1.74-.61-7.01-2.87-8.71-3.62-6.2-2.74-10.87-2.89-19.36-4.11-.81-.12-1.78-.17-2.3.54-.4.54-.37,1.32-.32,2.02.2,2.67.06,2.79.26,5.46.06.89.11,1.86-.33,2.6-.79,1.32-5.52,1.34-8.48,1.66-4.25.46-9.53,4.27-11.58,9.68Z"/>
  <g>
    <path class="cls-1" d="M62.49,56.35c.97,1.23,1.76,2.57,2.37,4.01.77,1.84,1.6,3.94,2.49,6.28,1.27,3.36,1.51,6.78.72,10.25-1.17,5.02-3.21,8.83-6.13,11.43-2.92,2.6-5.96,4.08-9.11,4.46-3.16.37-6.05-.32-8.68-2.1-2.63-1.77-4.23-4.52-4.8-8.24-.48-3.06-.46-5.56.07-7.49.52-1.94,1.26-3.35,2.21-4.25s1.97-1.3,3.05-1.21c1.08.09,1.93.63,2.54,1.62.62,1,.73,2.36.33,4.09-.4,1.73-1.83,2.36-4.28,1.88-.13,2.5.07,4.56.61,6.18.54,1.62,1.62,2.75,3.23,3.39,3.24,1.29,6.37,1.2,9.39-.25,3.02-1.46,5.07-3.89,6.14-7.32.75-2.4.98-4.42.7-6.05s-.74-3.51-1.38-5.62c-.45.47-.87.97-1.25,1.49-.38.52-.86.97-1.43,1.34-1.12.71-2.53,1.04-4.25.99-2.58-.07-4.63-1.01-6.14-2.79-1.51-1.79-2.45-3.83-2.84-6.12-.38-2.29-.2-4.54.56-6.75.76-2.21,2.11-3.79,4.06-4.74,1.38-.66,2.79-.85,4.25-.55,1.46.29,2.71.88,3.77,1.77.85.71,1.23,1.07,1.46,1.36.63.76,1.32,1.68,1.89,2.4l.42.54ZM52.86,55.49c-.66.22-1.17.48-1.53.78-.36.29-.67.76-.91,1.4-.68,1.8-.58,3.1.31,3.92.88.81,1.68,1.52,2.4,2.12.96.8,1.83,1.15,2.63,1.05.79-.1,1.42-.46,1.89-1.08s.73-1.4.79-2.34c.06-.94-.16-1.86-.66-2.75-.54-.94-1.17-1.8-1.9-2.58-.73-.78-1.74-.95-3.02-.52Z"/>
    <path class="cls-1" d="M92.16,83.49c-.5-1.69-.8-3.21-.9-4.55-.1-1.35.77-2.03,2.62-2.05,1.8-.02,3.01.75,3.63,2.31.63,1.56.67,3.27.14,5.12-.53,1.86-1.65,3.53-3.36,5.02-1.7,1.49-3.98,2.16-6.84,2-1.51-.09-3.07-.57-4.68-1.44-1.61-.86-3.1-2.05-4.45-3.56-1.35-1.51-2.47-3.31-3.35-5.41-.88-2.1-1.35-4.42-1.39-6.96-.02-.78.05-1.5.18-2.17.14-.67.21-1.28.22-1.83,0-.9-.11-1.63-.36-2.17-.25-.54-.4-1.43-.45-2.65.64-.66,1.14-1.04,1.49-1.14.35-.1.66-.12.92-.07.26.05.53.07.8.05.27-.02.66-.27,1.17-.76,2.6-2.52,5.2-3.39,7.81-2.61,2.61.77,4.67,2.22,6.18,4.34,1.51,2.12,2.19,4.43,2.04,6.92-.15,2.49-1.68,4.19-4.6,5.11-2.22.71-4.22.39-5.98-.96-1.76-1.35-3.25-2.31-4.46-2.9-.25,2.87.06,4.99.94,6.38.88,1.39,1.98,2.66,3.31,3.83,1.6,1.4,3.05,2.12,4.35,2.17,1.3.05,2.98-.62,5.04-2.03ZM88.66,69.46c-.78-1.56-1.96-2.54-3.53-2.92-1.57-.38-3,.09-4.28,1.42.34.47.87,1,1.58,1.59.71.59,1.47,1.04,2.26,1.36.79.32,1.56.41,2.29.27s1.29-.72,1.68-1.72Z"/>
    <path class="cls-1" d="M102.53,66.88c.25-3.04,1.06-5.37,2.43-7,1.37-1.63,2.91-2.56,4.62-2.81,1.71-.24,5.5.18,7.14,1.33,1.64,1.14,2.48,1.69,3.56,2.88,1.35,1.58,1.6,2.65,1.96,4.17.33,1.38.41,2.37.29,3.6s-.16,1.5-.84,2.2c-.68.7-1.34.85-2.7,1.05s-1.69-.93-2.12-2.04c-.45-1.16-.73-2-.99-2.79-.46-1.42-1.17-2.61-1.97-3.09-.43-.26-3.2-.58-4.45-.19-1.18.37-1.95,3.19-1.98,4.43-.05,1.76.09,3.32.42,4.67.45,1.85.98,3.53,1.59,5.04.61,1.51,1.17,2.97,1.68,4.37.42,1.16.61,2.42.57,3.78-.01.54-.24,1.07-.64,1.44-.83.77-.72.55-1.42.43-.83-.13-1.56-.7-2.2-1.71-.63-1.01-1.28-2.29-1.93-3.85s-1.55-3.07-2.67-4.55c-.55-.7-1.49-1.79-2.8-3.27-1.32-1.47-2.05-2.54-2.2-3.22-.49-2.18-.19-3.63.9-4.35,1.09-.72,2.35-.89,3.77-.52Z"/>
    <path class="cls-1" d="M127.17,78.51c-.32-2.17-.28-4.24.1-6.21.38-1.97.99-3.66,1.82-5.06.49-.82,1.5-1.82,3.02-3.02,1.53-1.2,2.8-1.89,3.83-2.07,3.27-.59,6.05.23,8.34,2.48,2.28,2.24,3.76,4.97,4.42,8.17.66,3.2.37,6.41-.89,9.63-1.25,3.22-3.78,5.5-7.57,6.84-1.66.58-3.23.66-4.71.22-1.48-.43-2.8-1.19-3.96-2.28-1.16-1.09-2.13-2.4-2.89-3.95-.77-1.54-1.27-3.13-1.51-4.75ZM137.26,67.87l-1.38.62c-.31.3-.79.62-1.42.96-.63.35-1.22.86-1.75,1.53-.54.68-.93,1.6-1.17,2.77-.24,1.17-.13,2.72.35,4.66.48,2.03,1.5,3.6,3.05,4.69,1.55,1.09,3.27,1.09,5.16-.02,1.45-.84,2.68-1.99,3.68-3.43,1-1.44,1.12-3.45.36-6.02-.54-1.82-1.46-3.29-2.76-4.42-1.3-1.13-2.67-1.58-4.11-1.34Z"/>
  </g>
</svg>